<!-- <svg xmlns="http://www.w3.org/2000/svg" fill="none" viewBox="0 0 128 128">
    <path d="M50.4 78.5a75.1 75.1 0 0 0-28.5 6.9l24.2-65.7c.7-2 1.9-3.2 3.4-3.2h29c1.5 0 2.7 1.2 3.4 3.2l24.2 65.7s-11.6-7-28.5-7L67 45.5c-.4-1.7-1.6-2.8-2.9-2.8-1.3 0-2.5 1.1-2.9 2.7L50.4 78.5Zm-1.1 28.2Zm-4.2-20.2c-2 6.6-.6 15.8 4.2 20.2a17.5 17.5 0 0 1 .2-.7 5.5 5.5 0 0 1 5.7-4.5c2.8.1 4.3 1.5 4.7 4.7.2 1.1.2 2.3.2 3.5v.4c0 2.7.7 5.2 2.2 7.4a13 13 0 0 0 5.7 4.9v-.3l-.2-.3c-1.8-5.6-.5-9.5 4.4-12.8l1.5-1a73 73 0 0 0 3.2-2.2 16 16 0 0 0 6.8-11.4c.3-2 .1-4-.6-6l-.8.6-1.6 1a37 37 0 0 1-22.4 2.7c-5-.7-9.7-2-13.2-6.2Z" />
    <style>
        path { fill: #000; }
        @media (prefers-color-scheme: dark) {
            path { fill: #FFF; }
        }
    </style>
</svg>
 -->


<svg xmlns="http://www.w3.org/2000/svg" width="32" height="32" fill="none" viewBox="0 0 128 128">
  <path d="M208,140v36c0,25.59-8.49,42.85-8.85,43.58A8,8,0,0,1,192,224a7.9,7.9,0,0,1-3.57-.85,8,8,0,0,1-3.58-10.73c.06-.12,7.16-14.81,7.16-36.42V140a12,12,0,0,0-24,0v4a8,8,0,0,1-16,0V124a12,12,0,0,0-24,0v12a8,8,0,0,1-16,0V68a12,12,0,0,0-24,0V176a8,8,0,0,1-14.79,4.23l-18.68-30-.14-.23A12,12,0,1,0,33.6,162L62.89,212A8,8,0,1,1,49.08,220l-29.32-50a28,28,0,0,1,48.41-28.17L72,148V68a28,28,0,0,1,56,0V98.7a28,28,0,0,1,38.65,16.69A28,28,0,0,1,208,140Zm32-92H187.31l18.34-18.34a8,8,0,0,0-11.31-11.32l-32,32a8,8,0,0,0,0,11.32l32,32a8,8,0,0,0,11.31-11.32L187.31,64H240a8,8,0,0,0,0-16Z" />
  <style>
        path { fill: #000; }
        @media (prefers-color-scheme: dark) {
            path { fill: #FFF; }
        }
    </style>
  </svg>